<?xml version="1.0" encoding="UTF-8"?><svg id="Layer_1" xmlns="http://www.w3.org/2000/svg" viewBox="0 0 500 500"><path d="M161.97,177.5l-.13,1.36c-2.81,0-6.26-.29-8.15.26-2.1.61-2.38.85-3.62,2.09-1.24,1.24-1.11,1.62-1.65,3.97-.54,2.36.33,74.56.33,78.61h-2.15l-1.36-.12c-.5-2.39-1.67-4.81-3.53-7.24-1.86-2.43-4.15-4.91-6.88-7.43s-5.77-5.14-9.11-7.86c-3.35-2.72-6.76-5.53-10.23-8.42-3.47-2.89-6.9-5.94-10.29-9.16-3.39-3.22-6.49-6.58-9.3-10.09-2.81-3.51-5.21-7.22-7.19-11.14-1.98-3.92-3.31-8.07-3.97-12.44v55.18c0,4.05.27,7.25.81,9.61.54,2.36,1.43,4.15,2.67,5.39,1.24,1.24,2.83,2.03,4.77,2.36,1.94.33,4.32.5,7.13.5v.74l-32.12.12v-.99c2.89,0,5.31-.16,7.25-.49,1.94-.33,3.51-1.11,4.71-2.35,1.2-1.24,1.58-5.44,2.12-7.79.54-2.35,1.29-3.14,1.29-7.19l-.28,17.12c0-4.04-3.13.23-3.13-2.13s.42,1.48.42-.81c0-1.43.56-78.48-1.05-78.81-1.61-.33-5.35-.66-8.24-.66v-2.18h13.64c0,3.06.83,6.14,2.48,9.24,1.65,3.1,3.84,6.22,6.57,9.36,2.73,3.14,5.85,6.3,9.36,9.49,3.51,3.18,7.11,6.45,10.79,9.8,3.68,3.35,7.32,6.74,10.91,10.17,3.6,3.43,6.86,6.96,9.8,10.6,2.93,3.64,5.35,7.34,7.25,11.1,1.9,3.76,3.02,7.67,3.35,11.72l-.79-63.09c0-4.05-.61-8.93-1.15-11.29-.54-2.36-1.05-2.95-1.47-3.37-1.22-1.22-2.32-1.37-4.26-1.7-1.94-.33-4.82-.49-7.71-.49v-1.53h32.12Z" fill="#fff"/><path d="M204.96,175.64c7.44,0,13.93,1.28,19.47,3.84,5.54,2.56,10.17,5.95,13.89,10.17,3.72,4.22,6.51,9.03,8.37,14.45,1.86,5.42,2.79,10.93,2.79,16.55s-.93,11.14-2.79,16.55c-1.86,5.42-4.65,10.23-8.37,14.45-3.72,4.22-8.35,7.61-13.89,10.17-5.54,2.56-12.03,3.84-19.47,3.84s-13.83-1.28-19.41-3.84c-5.58-2.56-10.21-5.95-13.89-10.17-3.68-4.22-6.45-9.03-8.31-14.45-1.86-5.41-2.79-10.93-2.79-16.55s.93-11.14,2.79-16.55c1.86-5.41,4.63-10.23,8.31-14.45,3.68-4.22,8.31-7.6,13.89-10.17,5.58-2.56,12.05-3.84,19.41-3.84ZM211.91,262.94c5.12.17,9.46-.89,13.02-3.16,3.55-2.27,6.36-5.35,8.43-9.24,2.07-3.88,3.41-8.33,4.03-13.33.62-5,.56-10.15-.19-15.44-.74-5.29-2.15-10.5-4.22-15.62-2.07-5.12-4.75-9.71-8.06-13.76-3.31-4.05-7.21-7.36-11.72-9.92-4.51-2.56-9.57-3.93-15.19-4.09-5.04-.17-9.34.89-12.9,3.16-3.56,2.28-6.39,5.33-8.49,9.18-2.11,3.84-3.51,8.29-4.22,13.33-.7,5.04-.7,10.21,0,15.5.7,5.29,2.07,10.48,4.09,15.56,2.02,5.08,4.69,9.65,8,13.7,3.31,4.05,7.25,7.38,11.84,9.98,4.59,2.6,9.77,3.99,15.56,4.15Z" fill="#fff"/><path d="M301.06,260.46c-1.24-3.14-1.55-6.53-.93-10.17.62-3.64,1.78-7.42,3.47-11.35,1.69-3.92,3.72-7.96,6.08-12.09,2.36-4.13,4.61-8.33,6.76-12.59,2.15-4.26,3.97-8.47,5.46-12.65,1.49-4.17,2.23-8.29,2.23-12.34,0-3.22-.87-5.95-2.6-8.18-1.74-2.23-4.67-3.64-8.8-4.22,1.74-.58,3.68-.87,5.83-.87s4.07.33,6.01.99c1.94.66,3.64,1.67,5.08,3.04,1.45,1.36,2.56,3.08,3.35,5.15.78,2.07,1.05,4.55.81,7.44-.42,4.79-1.8,9.49-4.15,14.07-2.36,4.59-5.08,9.03-8.18,13.33-3.1,4.3-6.22,8.47-9.36,12.52-3.14,4.05-5.72,7.96-7.75,11.72-2.03,3.76-3.14,7.38-3.35,10.85-.21,3.47,1.09,6.82,3.91,10.04-5.7.66-10.42-.42-14.14-3.22-3.72-2.81-7.01-7.05-9.86-12.71-2.85-5.66-5.5-12.67-7.94-21.02-2.44-8.35-5.23-17.73-8.37-28.15-2.07-6.94-4.65-11.94-7.75-15-3.1-3.06-6.34-4.59-9.73-4.59-1.24,0-2.36.17-3.35.5.83-.5,1.82-.97,2.98-1.43,1.16-.45,2.38-.85,3.66-1.18,1.28-.33,2.54-.58,3.78-.74,1.24-.17,2.36-.25,3.35-.25,4.05,0,7.42,1.47,10.11,4.4,2.69,2.94,5.02,6.76,7.01,11.47,1.98,4.71,3.8,10.07,5.46,16.06,1.65,6,3.43,12.07,5.33,18.23,1.9,6.16,4.07,12.11,6.51,17.86,2.44,5.75,5.47,10.77,9.11,15.07Z" fill="#fff"/><path d="M407.08,243.1c1.24,2.32,2.67,4.61,4.28,6.88,1.61,2.27,3.31,4.28,5.08,6.01,1.78,1.74,3.6,3.14,5.46,4.22,1.86,1.08,3.66,1.61,5.39,1.61,1.07,0,1.98-.16,2.73-.5-1.41,1.32-3.39,2.32-5.95,2.98-2.56.66-4.88.99-6.94.99-3.97,0-7.46-1.05-10.48-3.16-3.02-2.11-5.7-4.9-8.06-8.37-2.36-3.47-4.51-7.46-6.45-11.97-1.94-4.5-3.78-9.2-5.52-14.07.99,6.28.72,11.82-.81,16.62-1.53,4.79-3.84,8.8-6.94,12.03-3.1,3.22-6.74,5.64-10.91,7.25-4.17,1.61-8.37,2.42-12.59,2.42-3.39,0-6.66-.52-9.8-1.55-3.14-1.03-5.93-2.6-8.37-4.71-2.44-2.11-4.4-4.77-5.89-8-1.49-3.22-2.23-6.98-2.23-11.28,0-3.72.76-7.11,2.29-10.17,1.53-3.06,3.49-5.87,5.89-8.43,2.4-2.56,5.06-4.94,8-7.13,2.93-2.19,5.81-4.28,8.62-6.26,2.81-1.98,5.39-3.91,7.75-5.77,2.36-1.86,4.15-3.74,5.39-5.64,1.24-1.9,1.74-3.86,1.49-5.89-.25-2.03-1.53-4.2-3.84-6.51-1.57-1.4-3.18-2.56-4.84-3.47-1.65-.91-3.39-1.36-5.21-1.36-.99,0-1.94.17-2.85.5,1.57-1.24,3.64-2.19,6.2-2.85,2.56-.66,4.96-.99,7.19-.99,3.8.08,7.15,1.2,10.04,3.35,2.89,2.15,5.52,5,7.87,8.56,2.36,3.55,4.53,7.63,6.51,12.21,1.98,4.59,3.91,9.34,5.77,14.26,1.86,4.92,3.72,9.82,5.58,14.69,1.86,4.88,3.91,9.38,6.14,13.52ZM339.63,233.55c0,4.05.66,7.61,1.98,10.66,1.32,3.06,3.04,5.6,5.15,7.63,2.11,2.03,4.55,3.55,7.32,4.59,2.77,1.03,5.56,1.55,8.37,1.55,3.97,0,7.77-.97,11.41-2.91,3.64-1.94,6.51-4.88,8.62-8.8,2.11-3.93,3.14-8.82,3.1-14.69-.04-5.87-1.76-12.73-5.15-20.58v-.12c-1.49-3.88-3.08-7.54-4.77-10.97-1.7-3.43-3.58-6.51-5.64-9.24.58,2.4.21,4.61-1.12,6.63-1.32,2.03-3.1,4.03-5.33,6.01-2.23,1.98-4.73,4.01-7.5,6.08-2.77,2.07-5.38,4.28-7.81,6.63-2.44,2.36-4.49,4.96-6.14,7.81-1.66,2.85-2.48,6.1-2.48,9.73Z" fill="#fff"/><path d="M208.41,320.29c0,1.47-.62,2.59-1.87,3.38-1.25.79-3.02,1.18-5.32,1.18-2.45,0-4.4-.34-5.84-1.01v-1.61c1.85.82,3.79,1.24,5.84,1.24,1.81,0,3.19-.27,4.13-.81s1.41-1.25,1.41-2.15c0-.82-.37-1.52-1.12-2.08-.75-.56-1.98-1.12-3.69-1.66-1.83-.59-3.12-1.1-3.86-1.53-.74-.43-1.3-.91-1.68-1.45s-.56-1.19-.56-1.97c0-1.23.58-2.19,1.73-2.91s2.77-1.07,4.84-1.07,3.86.33,5.64,1l-.62,1.36c-1.8-.66-3.47-.99-5.01-.99s-2.68.22-3.56.66c-.88.44-1.32,1.05-1.32,1.84,0,.85.34,1.54,1.02,2.05.68.51,2.01,1.08,3.99,1.72,1.65.53,2.86,1.01,3.61,1.44.75.43,1.32.91,1.7,1.45.38.54.57,1.18.57,1.91Z" fill="#fff"/><path d="M221.97,323.53c1.06,0,1.98-.08,2.77-.24v1.21c-.81.24-1.74.36-2.8.36-1.62,0-2.82-.39-3.59-1.16-.77-.77-1.16-1.99-1.16-3.65v-10.58h-2.72v-.87l2.72-.68.84-3.71h.86v3.96h5.38v1.3h-5.38v10.36c0,1.26.25,2.18.74,2.79.49.6,1.27.9,2.33.9Z" fill="#fff"/><path d="M233.21,308.18v10.61c0,1.65.39,2.84,1.16,3.59s1.98,1.12,3.61,1.12c2.18,0,3.79-.49,4.82-1.48,1.03-.98,1.54-2.59,1.54-4.81v-9.04h1.65v16.38h-1.42l-.3-2.26h-.1c-1.19,1.71-3.31,2.56-6.36,2.56-4.17,0-6.26-1.99-6.26-5.98v-10.7h1.65Z" fill="#fff"/><path d="M261.92,307.87c1.33,0,2.48.22,3.44.65.97.43,1.83,1.17,2.6,2.21h.1c-.07-1.26-.1-2.5-.1-3.72v-5.89h1.65v23.44h-1.1l-.42-2.5h-.13c-1.4,1.87-3.4,2.8-6.01,2.8s-4.47-.7-5.81-2.11-2.01-3.46-2.01-6.15c0-2.83.66-5,1.99-6.49,1.33-1.5,3.26-2.25,5.79-2.25ZM261.92,309.22c-2,0-3.51.63-4.51,1.88-1.01,1.26-1.51,3.08-1.51,5.47,0,4.64,2.02,6.96,6.06,6.96,2.07,0,3.59-.54,4.56-1.61.97-1.07,1.45-2.85,1.45-5.32v-.26c0-2.53-.48-4.35-1.43-5.46-.95-1.11-2.49-1.66-4.62-1.66Z" fill="#fff"/><path d="M278.42,303.63c0-.96.35-1.45,1.06-1.45.35,0,.62.12.82.38.2.25.29.61.29,1.07s-.1.81-.29,1.07c-.2.26-.47.39-.82.39-.71,0-1.06-.49-1.06-1.46ZM280.32,324.56h-1.67v-16.38h1.67v16.38Z" fill="#fff"/><path d="M304.62,316.35c0,2.67-.73,4.76-2.18,6.26-1.45,1.5-3.45,2.25-6.01,2.25-1.61,0-3.03-.35-4.25-1.04-1.23-.69-2.17-1.69-2.82-2.98-.65-1.3-.98-2.79-.98-4.49,0-2.67.73-4.75,2.18-6.25,1.45-1.49,3.44-2.24,5.97-2.24s4.5.76,5.93,2.27,2.15,3.58,2.15,6.21ZM290.14,316.35c0,2.25.55,4,1.66,5.26,1.11,1.26,2.68,1.89,4.7,1.89s3.59-.63,4.7-1.89c1.11-1.26,1.66-3.02,1.66-5.26s-.56-4.01-1.68-5.26c-1.12-1.25-2.69-1.87-4.72-1.87s-3.59.62-4.68,1.86c-1.1,1.24-1.65,3-1.65,5.27Z" fill="#fff"/></svg>